<svg xmlns="http://www.w3.org/2000/svg" viewBox="0 0 117.44 310.84"><defs><style>.cls-1{fill:#fc5100;}.cls-2{fill:#ff6502;}.cls-3{fill:#230075;}.cls-4{fill:#2b009e;}.cls-5{fill:#fff;}</style></defs><title>Asset 4</title><g id="Layer_2" data-name="Layer 2"><g id="Layer_1-2" data-name="Layer 1"><path class="cls-1" d="M81.85,272.2c0,11.41-20.24,35.28-22.85,38.32a3.4,3.4,0,0,1-.26.29l0,0S35.59,284.4,35.59,272.2,46,250.14,58.72,250.14a23.46,23.46,0,0,1,3.48.26C73.33,252,81.85,261.16,81.85,272.2Z"/><path class="cls-2" d="M59,310.52a3.4,3.4,0,0,1-.26.29l0,0S35.59,284.4,35.59,272.2,46,250.14,58.72,250.14a23.46,23.46,0,0,1,3.48.26C53.43,272.33,54.9,289.48,59,310.52Z"/><path class="cls-3" d="M102.69,233.07l-19-6.58L88.56,161l27.27,35.65A9,9,0,0,1,117,204.6l-7.82,24.29C108.13,232.21,105.35,234,102.69,233.07Z"/><path class="cls-3" d="M33.74,226.59l-19,6.57c-2.67.92-5.42-.87-6.49-4.18L.42,204.7a9.06,9.06,0,0,1,1.2-7.93l27.23-35.58v0l0,0Z"/><path class="cls-3" d="M94.56,75.41A194.3,194.3,0,0,0,81.19,29.26,191.49,191.49,0,0,0,69.23,6,12,12,0,0,0,62.05.45,12.27,12.27,0,0,0,48.28,5.83,187.51,187.51,0,0,0,36.06,29.26,183.72,183.72,0,0,0,22.91,75.51a18.21,18.21,0,0,0-.15,4.17l6.09,81.49v0l4.89,65.4h50v-.07l4.89-65.35,6.07-81.39A18.79,18.79,0,0,0,94.56,75.41Zm-27,12.36a5.54,5.54,0,0,1-1.34,1.35,12.56,12.56,0,0,1-11.49,1.81c-6.6-2.35-10.4-10.57-5.1-18.39A5.17,5.17,0,0,1,51,71.18a15.39,15.39,0,0,1,4.08-2C65.45,66.09,74.65,77.33,67.56,87.77Z"/><path class="cls-4" d="M62.05.45q-1.72,8.27-3.31,17.64c-2,12.06-3.16,30.21-3.67,51.12a15.39,15.39,0,0,0-4.08,2,5.17,5.17,0,0,0-1.36,1.36c-5.3,7.82-1.5,16,5.1,18.39-.36,48.39,1.62,104.67,2.93,135.66H33.74l-19,6.57c-2.67.92-5.42-.87-6.49-4.18L.42,204.7a9.06,9.06,0,0,1,1.2-7.93l27.23-35.58v0L22.76,79.68a18.21,18.21,0,0,1,.15-4.17A183.72,183.72,0,0,1,36.06,29.26,187.51,187.51,0,0,1,48.28,5.83,12.27,12.27,0,0,1,62.05.45Z"/><circle class="cls-5" cx="58.12" cy="81.05" r="12.28"/></g></g></svg>